<svg xmlns="http://www.w3.org/2000/svg" xmlns:xlink="http://www.w3.org/1999/xlink" viewBox="0 0 30 30" fill="#77A7CF">
  <path d="M15 3C8.373 3 3 8.373 3 15C3 21.627 8.373 27 15 27C21.627 27 27 21.627 27 15C27 8.373 21.627 3 15 3 z M 15 5C20.523 5 25 9.477 25 15C25 20.523 20.523 25 15 25C9.477 25 5 20.523 5 15C5 9.477 9.477 5 15 5 z M 14 10C13.744 10 13.487969 10.097969 13.292969 10.292969L9.2929688 14.292969C8.9019687 14.683969 8.9019687 15.316031 9.2929688 15.707031L13.292969 19.707031C13.683969 20.098031 14.316031 20.098031 14.707031 19.707031C15.098031 19.316031 15.098031 18.683969 14.707031 18.292969L12.414062 16L20 16C20.552 16 21 15.553 21 15C21 14.447 20.552 14 20 14L12.414062 14L14.707031 11.707031C15.098031 11.316031 15.098031 10.683969 14.707031 10.292969C14.512031 10.097969 14.256 10 14 10 z" fill="#77A7CF" />
</svg>